<?xml version="1.0" encoding="UTF-8" standalone="no"?>
<!DOCTYPE svg PUBLIC "-//W3C//DTD SVG 1.1//EN" "http://www.w3.org/Graphics/SVG/1.1/DTD/svg11.dtd">
<svg width="100%" height="100%" viewBox="0 0 189 171" version="1.1" xmlns="http://www.w3.org/2000/svg" xmlns:xlink="http://www.w3.org/1999/xlink" xml:space="preserve" xmlns:serif="http://www.serif.com/" style="fill-rule:evenodd;clip-rule:evenodd;stroke-linecap:round;stroke-linejoin:round;stroke-miterlimit:1.5;">
    <g transform="matrix(1,0,0,1,-150.788,-465.625)">
        <g transform="matrix(2.31202,0,0,2.31202,-747.532,-360.899)">
            <path d="M446.274,404.015C450.784,399.505 453.318,393.388 453.318,387.01C453.318,380.631 450.784,374.514 446.274,370.004" style="fill:none;stroke:white;stroke-width:6.01px;"/>
        </g>
        <g transform="matrix(3.6264,0,0,3.6264,-1311.76,-869.215)">
            <path d="M446.274,404.015C450.784,399.505 453.318,393.388 453.318,387.01C453.318,380.631 450.784,374.514 446.274,370.004" style="fill:none;stroke:white;stroke-width:3.83px;"/>
        </g>
        <g transform="matrix(-2.31202,-0.0010514,0.0010514,-2.31202,1237.01,1429.98)">
            <path d="M446.274,404.015C450.784,399.505 453.318,393.388 453.318,387.01C453.318,380.631 450.784,374.514 446.274,370.004" style="fill:none;stroke:white;stroke-width:6.01px;"/>
        </g>
        <g transform="matrix(-3.6264,-0.00164912,0.00164912,-3.6264,1801.01,1938.55)">
            <path d="M446.274,404.015C450.784,399.505 453.318,393.388 453.318,387.01C453.318,380.631 450.784,374.514 446.274,370.004" style="fill:none;stroke:white;stroke-width:3.83px;"/>
        </g>
        <g transform="matrix(1.65293,0,0,1.65038,-345.425,-40.8984)">
            <ellipse cx="357.167" cy="348.535" rx="14.403" ry="14.425" style="fill:none;stroke:white;stroke-width:8.41px;"/>
        </g>
        <g transform="matrix(1.58715,-1.02828e-06,-1.02828e-06,1.01663,-398.197,173.879)">
            <path d="M405.219,377.961L405.219,448.236" style="fill:none;stroke:white;stroke-width:10.42px;"/>
        </g>
    </g>
</svg>
