<svg id="Ebene_2" data-name="Ebene 2" xmlns="http://www.w3.org/2000/svg" viewBox="0 0 285.99 255.47"><defs><style>.cls-1{fill:#2c3f48;}</style></defs><title>RH-LOGO-FIN3</title><path class="cls-1" d="M157.67,256.42q7.82,0,12,2.78t4.16,8.65a9.78,9.78,0,0,1-1.68,5.95,11.07,11.07,0,0,1-4.84,3.59c.7.87,1.44,1.86,2.21,3s1.53,2.29,2.28,3.51,1.48,2.5,2.18,3.82,1.36,2.61,2,3.88h-8.75c-.64-1.13-1.29-2.29-1.94-3.46s-1.33-2.3-2-3.41-1.37-2.15-2-3.13-1.35-1.89-2-2.69h-3.86v12.69h-7.83V257.32a42.67,42.67,0,0,1,5.29-.7C154.6,256.48,156.23,256.42,157.67,256.42Zm.45,6.67c-.57,0-1.08,0-1.53.05l-1.28.1v9.43h2.21q4.41,0,6.32-1.1a4,4,0,0,0,1.9-3.77,3.82,3.82,0,0,0-1.93-3.63A11.91,11.91,0,0,0,158.12,263.09Z" transform="translate(-69.6 -84.87)"/><path class="cls-1" d="M206.74,291.58c-.38-1.2-.8-2.44-1.24-3.72s-.89-2.54-1.33-3.8H190.59l-1.32,3.81c-.44,1.28-.86,2.52-1.24,3.71h-8.12q2-5.61,3.72-10.38t3.45-9q1.68-4.22,3.32-8t3.4-7.4h7.42q1.71,3.6,3.37,7.4t3.35,8q1.69,4.21,3.46,9t3.73,10.38Zm-9.4-26.89c-.17.51-.43,1.2-.77,2.06s-.72,1.88-1.15,3-.91,2.39-1.44,3.76-1.07,2.81-1.61,4.31h9.94c-.53-1.51-1.05-2.95-1.55-4.32s-1-2.63-1.42-3.77l-1.18-3C197.82,265.87,197.55,265.19,197.34,264.69Z" transform="translate(-69.6 -84.87)"/><path class="cls-1" d="M235,292.29q-8.47,0-12.91-4.72t-4.45-13.39a20.7,20.7,0,0,1,1.36-7.71,16.55,16.55,0,0,1,3.71-5.71,15.45,15.45,0,0,1,5.62-3.54,20.32,20.32,0,0,1,7.08-1.21,22.43,22.43,0,0,1,4,.33,27.45,27.45,0,0,1,3.16.75,17,17,0,0,1,2.26.88c.6.3,1,.54,1.3.7L243.89,265a19.35,19.35,0,0,0-3.73-1.45,18,18,0,0,0-4.85-.6,10.69,10.69,0,0,0-3.53.6,7.84,7.84,0,0,0-3.06,1.93,9.65,9.65,0,0,0-2.14,3.44,14.5,14.5,0,0,0-.8,5.11,18.39,18.39,0,0,0,.53,4.5,9.59,9.59,0,0,0,1.7,3.58,8.24,8.24,0,0,0,3.09,2.39,11.07,11.07,0,0,0,4.62.87,20.32,20.32,0,0,0,3.06-.2,22.73,22.73,0,0,0,2.4-.47,13.41,13.41,0,0,0,1.86-.63l1.46-.65,2.15,6.27a18.12,18.12,0,0,1-4.66,1.8A27,27,0,0,1,235,292.29Z" transform="translate(-69.6 -84.87)"/><path class="cls-1" d="M252.46,291.58V256.82h23.48v6.57H260.28v6.82h13.9v6.42h-13.9V285h16.81v6.57Z" transform="translate(-69.6 -84.87)"/><path class="cls-1" d="M90.57,304.86H98.4v34.77H90.57V324.88H77.43v14.75H69.6V304.86h7.83v13.3H90.57Z" transform="translate(-69.6 -84.87)"/><path class="cls-1" d="M140.36,322.22a21.27,21.27,0,0,1-1.33,7.85,16.13,16.13,0,0,1-3.63,5.67,14.83,14.83,0,0,1-5.5,3.44,19.9,19.9,0,0,1-6.85,1.15,19.45,19.45,0,0,1-6.72-1.15,15.5,15.5,0,0,1-5.52-3.44,16,16,0,0,1-3.71-5.67,21.06,21.06,0,0,1-1.35-7.85,20.33,20.33,0,0,1,1.4-7.85,16.64,16.64,0,0,1,3.79-5.69,15.61,15.61,0,0,1,5.52-3.47,18.92,18.92,0,0,1,6.59-1.15,19.46,19.46,0,0,1,6.73,1.15,15.43,15.43,0,0,1,5.52,3.47,16.19,16.19,0,0,1,3.71,5.69A21.13,21.13,0,0,1,140.36,322.22Zm-26.54,0a15.74,15.74,0,0,0,.63,4.62,10.43,10.43,0,0,0,1.81,3.53,7.94,7.94,0,0,0,2.88,2.29,9.91,9.91,0,0,0,7.8,0,7.88,7.88,0,0,0,2.91-2.29,10.43,10.43,0,0,0,1.81-3.53,15.74,15.74,0,0,0,.63-4.62,16,16,0,0,0-.63-4.64,10.49,10.49,0,0,0-1.81-3.56,7.75,7.75,0,0,0-2.91-2.28,9.05,9.05,0,0,0-3.89-.81,8.88,8.88,0,0,0-3.91.83,8.1,8.1,0,0,0-2.88,2.31,10.49,10.49,0,0,0-1.81,3.56A15.82,15.82,0,0,0,113.82,322.22Z" transform="translate(-69.6 -84.87)"/><path class="cls-1" d="M157.86,304.46q7.83,0,12,2.79T174,315.9a9.82,9.82,0,0,1-1.68,6,11.11,11.11,0,0,1-4.84,3.58c.7.87,1.43,1.87,2.2,3s1.53,2.29,2.29,3.51,1.48,2.49,2.18,3.81,1.35,2.62,2,3.89h-8.74c-.64-1.14-1.29-2.29-1.94-3.46s-1.33-2.31-2-3.41-1.37-2.15-2-3.14-1.34-1.88-2-2.68h-3.86v12.69h-7.83V305.36a46.53,46.53,0,0,1,5.29-.7C154.79,304.53,156.42,304.46,157.86,304.46Zm.45,6.67c-.56,0-1.07,0-1.53.05l-1.27.1v9.44h2.2q4.41,0,6.32-1.11a4,4,0,0,0,1.91-3.76,3.82,3.82,0,0,0-1.93-3.64A12,12,0,0,0,158.31,311.13Z" transform="translate(-69.6 -84.87)"/><path class="cls-1" d="M214.44,322.22a21.27,21.27,0,0,1-1.33,7.85,16.13,16.13,0,0,1-3.63,5.67,14.83,14.83,0,0,1-5.5,3.44,19.94,19.94,0,0,1-6.85,1.15,19.45,19.45,0,0,1-6.72-1.15,15.5,15.5,0,0,1-5.52-3.44,16,16,0,0,1-3.71-5.67,21.06,21.06,0,0,1-1.35-7.85,20.33,20.33,0,0,1,1.4-7.85,16.64,16.64,0,0,1,3.79-5.69,15.61,15.61,0,0,1,5.52-3.47,18.92,18.92,0,0,1,6.59-1.15,19.46,19.46,0,0,1,6.73,1.15,15.43,15.43,0,0,1,5.52,3.47,16.19,16.19,0,0,1,3.71,5.69A21.13,21.13,0,0,1,214.44,322.22Zm-26.54,0a15.74,15.74,0,0,0,.63,4.62,10.43,10.43,0,0,0,1.81,3.53,7.94,7.94,0,0,0,2.88,2.29,9.91,9.91,0,0,0,7.8,0,7.88,7.88,0,0,0,2.91-2.29,10.43,10.43,0,0,0,1.81-3.53,15.74,15.74,0,0,0,.63-4.62,16,16,0,0,0-.63-4.64,10.49,10.49,0,0,0-1.81-3.56,7.75,7.75,0,0,0-2.91-2.28,9.05,9.05,0,0,0-3.89-.81,8.88,8.88,0,0,0-3.91.83,8.1,8.1,0,0,0-2.88,2.31,10.49,10.49,0,0,0-1.81,3.56A15.82,15.82,0,0,0,187.9,322.22Z" transform="translate(-69.6 -84.87)"/><path class="cls-1" d="M245,332.91v6.72H221.76V304.86h7.82v28.05Z" transform="translate(-69.6 -84.87)"/><path class="cls-1" d="M283.38,322.22a21.27,21.27,0,0,1-1.33,7.85,16.13,16.13,0,0,1-3.63,5.67,14.83,14.83,0,0,1-5.5,3.44,19.94,19.94,0,0,1-6.85,1.15,19.45,19.45,0,0,1-6.72-1.15,15.33,15.33,0,0,1-5.52-3.44,16,16,0,0,1-3.71-5.67,21.05,21.05,0,0,1-1.36-7.85,20.33,20.33,0,0,1,1.41-7.85,16.64,16.64,0,0,1,3.79-5.69,15.61,15.61,0,0,1,5.52-3.47,18.92,18.92,0,0,1,6.59-1.15,19.46,19.46,0,0,1,6.73,1.15,15.43,15.43,0,0,1,5.52,3.47,16.19,16.19,0,0,1,3.71,5.69A21.13,21.13,0,0,1,283.38,322.22Zm-26.54,0a15.74,15.74,0,0,0,.63,4.62,10.43,10.43,0,0,0,1.81,3.53,7.94,7.94,0,0,0,2.88,2.29,9.91,9.91,0,0,0,7.8,0,7.88,7.88,0,0,0,2.91-2.29,10.43,10.43,0,0,0,1.81-3.53,15.74,15.74,0,0,0,.63-4.62,16,16,0,0,0-.63-4.64,10.49,10.49,0,0,0-1.81-3.56,7.75,7.75,0,0,0-2.91-2.28,9.05,9.05,0,0,0-3.89-.81,8.88,8.88,0,0,0-3.91.83,8.1,8.1,0,0,0-2.88,2.31,10.49,10.49,0,0,0-1.81,3.56A15.82,15.82,0,0,0,256.84,322.22Z" transform="translate(-69.6 -84.87)"/><path class="cls-1" d="M307.52,310.88c-3.65,0-6.28,1-7.9,3s-2.44,4.79-2.44,8.3a16.29,16.29,0,0,0,.61,4.64,10.19,10.19,0,0,0,1.8,3.59,8.23,8.23,0,0,0,3,2.33,10.09,10.09,0,0,0,4.22.83c.87,0,1.61,0,2.23-.05a10.22,10.22,0,0,0,1.63-.2V321.27h7.83v17.21a29.77,29.77,0,0,1-4.52,1.18,40.34,40.34,0,0,1-7.68.62,20,20,0,0,1-7.09-1.2,14.8,14.8,0,0,1-5.45-3.51,15.79,15.79,0,0,1-3.49-5.67,22.5,22.5,0,0,1-1.22-7.68,20.57,20.57,0,0,1,1.35-7.72,16.7,16.7,0,0,1,3.71-5.7,15.88,15.88,0,0,1,5.55-3.54,19.11,19.11,0,0,1,6.8-1.2,27.11,27.11,0,0,1,4.43.33,25.85,25.85,0,0,1,3.42.75,15.67,15.67,0,0,1,2.36.88,14.63,14.63,0,0,1,1.32.7L315.75,313a20.4,20.4,0,0,0-3.69-1.48A15.62,15.62,0,0,0,307.52,310.88Z" transform="translate(-69.6 -84.87)"/><path class="cls-1" d="M339.43,319.12q2.11-3.54,4-7.1c1.27-2.37,2.44-4.75,3.52-7.16h8.63q-2.87,5.63-5.92,10.89t-6.47,10.59v13.29h-7.83V326.44q-3.42-5.32-6.5-10.64t-5.94-10.94H332c1.07,2.41,2.22,4.79,3.45,7.16S338,316.76,339.43,319.12Z" transform="translate(-69.6 -84.87)"/><path class="cls-1" d="M214.51,149a2.46,2.46,0,0,1-2.45-2.46v-6.79a2.46,2.46,0,0,1,4.91,0v6.79A2.46,2.46,0,0,1,214.51,149Z" transform="translate(-69.6 -84.87)"/><path class="cls-1" d="M214.51,211.89a2.45,2.45,0,0,1-2.45-2.45v-6.79a2.46,2.46,0,1,1,4.91,0v6.79A2.45,2.45,0,0,1,214.51,211.89Z" transform="translate(-69.6 -84.87)"/><path class="cls-1" d="M234.33,157.25a2.46,2.46,0,0,1-1.73-4.19l4.8-4.8a2.45,2.45,0,0,1,3.47,3.46l-4.8,4.81A2.45,2.45,0,0,1,234.33,157.25Z" transform="translate(-69.6 -84.87)"/><path class="cls-1" d="M189.89,201.69a2.49,2.49,0,0,1-1.74-.71,2.45,2.45,0,0,1,0-3.47L193,192.7a2.45,2.45,0,0,1,3.46,3.47l-4.8,4.81A2.48,2.48,0,0,1,189.89,201.69Z" transform="translate(-69.6 -84.87)"/><path class="cls-1" d="M194.69,157.25a2.43,2.43,0,0,1-1.73-.72l-4.81-4.81a2.45,2.45,0,0,1,3.47-3.46l4.8,4.8a2.45,2.45,0,0,1,0,3.47A2.41,2.41,0,0,1,194.69,157.25Z" transform="translate(-69.6 -84.87)"/><path class="cls-1" d="M239.14,201.69a2.49,2.49,0,0,1-1.74-.71l-4.8-4.81a2.45,2.45,0,0,1,3.47-3.47l4.8,4.81a2.45,2.45,0,0,1-1.73,4.18Z" transform="translate(-69.6 -84.87)"/><path class="cls-1" d="M186.48,177.07h-6.79a2.46,2.46,0,1,1,0-4.91h6.79a2.46,2.46,0,0,1,0,4.91Z" transform="translate(-69.6 -84.87)"/><path class="cls-1" d="M249.34,177.07h-6.8a2.46,2.46,0,0,1,0-4.91h6.8a2.46,2.46,0,0,1,0,4.91Z" transform="translate(-69.6 -84.87)"/><path class="cls-1" d="M231.2,158.1a2.45,2.45,0,0,0-3.47,0l-10.17,10.41a6.7,6.7,0,0,0-9.33,6.24,6.58,6.58,0,0,0,.61,2.69l-2,2a2.45,2.45,0,1,0,3.5,3.43l2-2.06a6.58,6.58,0,0,0,2.66.53,6.7,6.7,0,0,0,6.05-9.43l10.18-10.42A2.45,2.45,0,0,0,231.2,158.1Zm-18.06,16.63a1.8,1.8,0,1,1,1.82,1.78A1.8,1.8,0,0,1,213.14,174.73Z" transform="translate(-69.6 -84.87)"/><path class="cls-1" d="M203.34,109.48a4.09,4.09,0,0,0,4-3.63h.05V99.12a1.62,1.62,0,0,1,3-.86v7.13a4.09,4.09,0,1,0,8.17,0V98.25a1.61,1.61,0,0,1,1.35-.77,1.64,1.64,0,0,1,1.63,1.64v6.73h.06a4.08,4.08,0,0,0,8.13-.46V92.72s0-.07,0-.1V89.77a4.91,4.91,0,0,0-4.9-4.9h-20.7a4.92,4.92,0,0,0-4.91,4.9v15.62A4.1,4.1,0,0,0,203.34,109.48Z" transform="translate(-69.6 -84.87)"/><path class="cls-1" d="M214.51,115.65a59,59,0,1,0,59,59A59,59,0,0,0,214.51,115.65Zm-50.77,61a2,2,0,0,1-2-2,52.84,52.84,0,0,1,52.77-52.78,2,2,0,1,1,0,4,48.8,48.8,0,0,0-48.74,48.75A2,2,0,0,1,163.74,176.63Zm8.67-2a42.11,42.11,0,1,1,42.1,42.1A42.1,42.1,0,0,1,172.41,174.62Zm42.08,52.77a2,2,0,0,1,0-4,48.8,48.8,0,0,0,48.75-48.74,2,2,0,1,1,4,0A52.84,52.84,0,0,1,214.49,227.39Z" transform="translate(-69.6 -84.87)"/></svg>