<svg id="Ebene_3" data-name="Ebene 3" xmlns="http://www.w3.org/2000/svg" viewBox="0 0 272.15 156"><defs><style>.cls-1{fill:#d9e7db;}.cls-2{fill:#2c3f48;}</style></defs><title>RH-LOGO-FIN6</title><path class="cls-1" d="M96.46,199.13q15.33,0,23.47,5.45t8.16,16.94q0,7.17-3.29,11.64a21.72,21.72,0,0,1-9.48,7q2.06,2.55,4.32,5.84c1.51,2.2,3,4.49,4.47,6.88s2.89,4.87,4.27,7.46,2.65,5.13,3.83,7.61H115.08q-1.87-3.33-3.79-6.77c-1.28-2.29-2.6-4.52-3.94-6.68s-2.68-4.21-4-6.14-2.63-3.68-3.94-5.26H91.85V268H76.52V200.89a87.57,87.57,0,0,1,10.37-1.37C90.45,199.26,93.65,199.13,96.46,199.13Zm.89,13.06c-1.12,0-2.12,0-3,.1l-2.5.19V231h4.32q8.64,0,12.37-2.16t3.73-7.37q0-5-3.78-7.12T97.35,212.19Z" transform="translate(-76.52 -134.6)"/><path class="cls-1" d="M333.35,199.91h15.33V268H333.35V239.1H307.62V268H292.3V199.91h15.32v26h25.73Z" transform="translate(-76.52 -134.6)"/><path class="cls-2" d="M208.91,201.91a2.57,2.57,0,0,1-2.57-2.57v-7.13a2.58,2.58,0,0,1,5.15,0v7.13A2.58,2.58,0,0,1,208.91,201.91Z" transform="translate(-76.52 -134.6)"/><path class="cls-2" d="M208.91,267.85a2.57,2.57,0,0,1-2.57-2.57v-7.13a2.58,2.58,0,0,1,5.15,0v7.13A2.58,2.58,0,0,1,208.91,267.85Z" transform="translate(-76.52 -134.6)"/><path class="cls-2" d="M229.71,210.53a2.58,2.58,0,0,1-1.82-4.39l5-5a2.57,2.57,0,0,1,3.63,3.63l-5,5A2.53,2.53,0,0,1,229.71,210.53Z" transform="translate(-76.52 -134.6)"/><path class="cls-2" d="M183.08,257.15a2.57,2.57,0,0,1-1.82-4.39l5-5a2.57,2.57,0,0,1,3.64,3.64l-5,5A2.57,2.57,0,0,1,183.08,257.15Z" transform="translate(-76.52 -134.6)"/><path class="cls-2" d="M188.12,210.53a2.54,2.54,0,0,1-1.82-.76l-5-5a2.57,2.57,0,1,1,3.64-3.63l5,5a2.57,2.57,0,0,1,0,3.63A2.54,2.54,0,0,1,188.12,210.53Z" transform="translate(-76.52 -134.6)"/><path class="cls-2" d="M234.75,257.15a2.57,2.57,0,0,1-1.82-.75l-5-5a2.57,2.57,0,0,1,3.63-3.64l5,5a2.57,2.57,0,0,1-1.81,4.39Z" transform="translate(-76.52 -134.6)"/><path class="cls-2" d="M179.51,231.32h-7.13a2.58,2.58,0,0,1,0-5.15h7.13a2.58,2.58,0,0,1,0,5.15Z" transform="translate(-76.52 -134.6)"/><path class="cls-2" d="M245.45,231.32h-7.13a2.58,2.58,0,0,1,0-5.15h7.13a2.58,2.58,0,0,1,0,5.15Z" transform="translate(-76.52 -134.6)"/><path class="cls-2" d="M226.42,211.42a2.57,2.57,0,0,0-3.64.05l-10.67,10.92a6.88,6.88,0,0,0-2.83-.57,7,7,0,0,0-7,7.11,7.15,7.15,0,0,0,.64,2.82l-2.1,2.14a2.57,2.57,0,0,0,0,3.64,2.58,2.58,0,0,0,3.64,0l2.11-2.16a7,7,0,0,0,9.13-9.34l10.68-10.93A2.57,2.57,0,0,0,226.42,211.42Zm-18.95,17.45a1.89,1.89,0,1,1,1.91,1.87A1.89,1.89,0,0,1,207.47,228.87Z" transform="translate(-76.52 -134.6)"/><path class="cls-2" d="M197.19,160.42a4.28,4.28,0,0,0,4.24-3.81h0v-7.06a1.7,1.7,0,0,1,3.15-.9v7.48a4.29,4.29,0,1,0,8.57,0v-7.49a1.69,1.69,0,0,1,1.41-.8,1.71,1.71,0,0,1,1.72,1.71v7.06h.06a4.28,4.28,0,0,0,8.53-.48V142.84s0-.07,0-.11v-3a5.17,5.17,0,0,0-5.15-5.15H198.05a5.16,5.16,0,0,0-5.14,5.15v16.38A4.29,4.29,0,0,0,197.19,160.42Z" transform="translate(-76.52 -134.6)"/><path class="cls-2" d="M208.91,166.89a61.86,61.86,0,1,0,61.86,61.86A61.86,61.86,0,0,0,208.91,166.89Zm-53.26,64a2.12,2.12,0,0,1-2.12-2.11,55.42,55.42,0,0,1,55.36-55.36,2.12,2.12,0,1,1,0,4.23,51.19,51.19,0,0,0-51.13,51.13A2.11,2.11,0,0,1,155.65,230.86Zm9.09-2.11a44.17,44.17,0,1,1,44.17,44.16A44.17,44.17,0,0,1,164.74,228.75Zm44.15,55.36a2.12,2.12,0,0,1,0-4.23A51.19,51.19,0,0,0,260,228.75a2.12,2.12,0,1,1,4.23,0A55.42,55.42,0,0,1,208.89,284.11Z" transform="translate(-76.52 -134.6)"/></svg>