<svg id="Ebene_4" data-name="Ebene 4" xmlns="http://www.w3.org/2000/svg" viewBox="0 0 240.3 240.3"><defs><style>.cls-1{fill:#d9e7db;}.cls-2{fill:#f8faf8;}.cls-3{fill:#2c3f48;}.cls-4{fill:#ecf3ed;}</style></defs><title>RH-LOGO-FIN-APP</title><rect class="cls-1" width="240.3" height="240.3" rx="31.85"/><circle class="cls-2" cx="120.76" cy="140.84" r="77.96"/><path class="cls-3" d="M212.6,312.73A79.75,79.75,0,1,1,292.35,233,79.83,79.83,0,0,1,212.6,312.73Zm0-153.21A73.47,73.47,0,1,0,286.07,233,73.55,73.55,0,0,0,212.6,159.52Z" transform="translate(-92.45 -92.45)"/><circle class="cls-4" cx="120.15" cy="140.53" r="54.7"/><path class="cls-3" d="M212.6,290.83A57.85,57.85,0,1,1,270.45,233,57.91,57.91,0,0,1,212.6,290.83Zm0-109.41A51.56,51.56,0,1,0,264.16,233,51.62,51.62,0,0,0,212.6,181.42Z" transform="translate(-92.45 -92.45)"/><path class="cls-3" d="M212.6,199.75a3.19,3.19,0,0,1-3.19-3.19v-8.83a3.19,3.19,0,0,1,6.38,0v8.83A3.19,3.19,0,0,1,212.6,199.75Z" transform="translate(-92.45 -92.45)"/><path class="cls-3" d="M212.6,281.42a3.19,3.19,0,0,1-3.19-3.19V269.4a3.19,3.19,0,0,1,6.38,0v8.83A3.19,3.19,0,0,1,212.6,281.42Z" transform="translate(-92.45 -92.45)"/><path class="cls-3" d="M238.35,210.41A3.18,3.18,0,0,1,236.1,205l6.24-6.25a3.19,3.19,0,0,1,4.51,4.51l-6.24,6.24A3.2,3.2,0,0,1,238.35,210.41Z" transform="translate(-92.45 -92.45)"/><path class="cls-3" d="M180.6,268.16a3.19,3.19,0,0,1-2.25-5.44l6.24-6.24A3.19,3.19,0,0,1,189.1,261l-6.24,6.24A3.19,3.19,0,0,1,180.6,268.16Z" transform="translate(-92.45 -92.45)"/><path class="cls-3" d="M186.85,210.41a3.2,3.2,0,0,1-2.26-.93l-6.24-6.24a3.19,3.19,0,0,1,4.51-4.51L189.1,205a3.18,3.18,0,0,1-2.25,5.43Z" transform="translate(-92.45 -92.45)"/><path class="cls-3" d="M244.6,268.16a3.19,3.19,0,0,1-2.26-.93L236.1,261a3.19,3.19,0,0,1,4.51-4.51l6.24,6.24a3.19,3.19,0,0,1-2.25,5.44Z" transform="translate(-92.45 -92.45)"/><path class="cls-3" d="M176.18,236.17h-8.83a3.19,3.19,0,1,1,0-6.37h8.83a3.19,3.19,0,1,1,0,6.37Z" transform="translate(-92.45 -92.45)"/><path class="cls-3" d="M257.85,236.17H249a3.19,3.19,0,1,1,0-6.37h8.83a3.19,3.19,0,1,1,0,6.37Z" transform="translate(-92.45 -92.45)"/><path class="cls-3" d="M234.49,211.71a3.17,3.17,0,0,0-4.5,0l-13.38,13.37a8.7,8.7,0,0,0-12.21,8,8.59,8.59,0,0,0,.75,3.5l-2.63,2.62a3.19,3.19,0,0,0,4.5,4.51l2.64-2.64A8.7,8.7,0,0,0,221.1,229.6l13.39-13.39A3.17,3.17,0,0,0,234.49,211.71Zm-23.72,21.34a2.34,2.34,0,1,1,2.34,2.34A2.34,2.34,0,0,1,210.77,233.05Z" transform="translate(-92.45 -92.45)"/><path class="cls-3" d="M198.18,149.87a5.31,5.31,0,0,0,5.25-4.72h.07v-8.74a2.12,2.12,0,0,1,2.12-2.12,2.08,2.08,0,0,1,1.77,1v9.26a5.31,5.31,0,0,0,10.62,0v-9.28a2.09,2.09,0,0,1,1.75-1,2.12,2.12,0,0,1,2.12,2.12v8.74H222a5.3,5.3,0,0,0,10.56-.59V128.1s0-.09,0-.14v-3.69a6.4,6.4,0,0,0-6.37-6.38h-26.9a6.4,6.4,0,0,0-6.37,6.38v20.29A5.33,5.33,0,0,0,198.18,149.87Z" transform="translate(-92.45 -92.45)"/><path class="cls-3" d="M146.65,235.6A2.62,2.62,0,0,1,144,233a68.65,68.65,0,0,1,68.57-68.57,2.62,2.62,0,0,1,0,5.24A63.4,63.4,0,0,0,149.27,233,2.62,2.62,0,0,1,146.65,235.6Z" transform="translate(-92.45 -92.45)"/><path class="cls-3" d="M212.6,301.55a2.62,2.62,0,1,1,0-5.24A63.4,63.4,0,0,0,275.93,233a2.62,2.62,0,0,1,5.24,0A68.65,68.65,0,0,1,212.6,301.55Z" transform="translate(-92.45 -92.45)"/></svg>