<svg id="Ebene_5" data-name="Ebene 5" xmlns="http://www.w3.org/2000/svg" viewBox="0 0 323.1 89.13"><defs><style>.cls-1{fill:#2c3f48;}.cls-2{fill:#d9e7db;}</style></defs><title>RH-LOGO-FIN2</title><path class="cls-1" d="M149,187.27q6.47,0,9.91,2.3c2.29,1.54,3.44,3.92,3.44,7.16a8,8,0,0,1-1.39,4.91,9.18,9.18,0,0,1-4,3c.58.72,1.19,1.54,1.82,2.47S160,209,160.64,210s1.22,2.06,1.81,3.15,1.12,2.17,1.61,3.22h-7.23c-.53-.94-1.06-1.9-1.6-2.87s-1.1-1.9-1.67-2.82-1.13-1.77-1.69-2.59-1.11-1.55-1.66-2.22H147v10.5h-6.47V188a35.68,35.68,0,0,1,4.37-.58C146.43,187.33,147.78,187.27,149,187.27Zm.37,5.52c-.47,0-.89,0-1.27,0l-1,.08v7.8h1.82a11.16,11.16,0,0,0,5.23-.91,3.3,3.3,0,0,0,1.57-3.11,3.17,3.17,0,0,0-1.59-3A9.85,9.85,0,0,0,149.34,192.79Z" transform="translate(-53.88 -168.04)"/><path class="cls-1" d="M189.54,216.35c-.32-1-.66-2-1-3.08s-.74-2.1-1.1-3.15H176.18c-.36,1-.73,2.1-1.09,3.16s-.7,2.07-1,3.07h-6.72q1.62-4.65,3.08-8.59t2.85-7.42c.93-2.33,1.84-4.53,2.75-6.62s1.83-4.13,2.8-6.12H185q1.41,3,2.79,6.12c.92,2.09,1.84,4.29,2.77,6.62s1.88,4.79,2.86,7.42,2,5.49,3.08,8.59Zm-7.77-22.24c-.15.42-.36,1-.64,1.71s-.59,1.55-.95,2.49-.75,2-1.19,3.11-.88,2.32-1.34,3.56h8.22c-.44-1.25-.86-2.44-1.27-3.57s-.81-2.18-1.18-3.12l-1-2.49C182.16,195.08,181.94,194.52,181.77,194.11Z" transform="translate(-53.88 -168.04)"/><path class="cls-1" d="M212.91,216.93q-7,0-10.68-3.9T198.56,202a16.93,16.93,0,0,1,1.12-6.36,13.68,13.68,0,0,1,3.07-4.73,12.92,12.92,0,0,1,4.64-2.93,16.87,16.87,0,0,1,5.85-1,18.67,18.67,0,0,1,3.32.27,22,22,0,0,1,2.61.62,13.32,13.32,0,0,1,1.87.73,10.93,10.93,0,0,1,1.08.58l-1.87,5.22a15.32,15.32,0,0,0-3.09-1.2,14.78,14.78,0,0,0-4-.5,8.87,8.87,0,0,0-2.92.5,6.45,6.45,0,0,0-2.53,1.6,8,8,0,0,0-1.77,2.84,12,12,0,0,0-.66,4.23,15.1,15.1,0,0,0,.43,3.71,8,8,0,0,0,1.41,3,6.87,6.87,0,0,0,2.56,2,9.12,9.12,0,0,0,3.81.72A17.47,17.47,0,0,0,216,211a16.6,16.6,0,0,0,2-.4,9.55,9.55,0,0,0,1.54-.52l1.2-.54,1.78,5.19a15.07,15.07,0,0,1-3.85,1.49A22.58,22.58,0,0,1,212.91,216.93Z" transform="translate(-53.88 -168.04)"/><path class="cls-1" d="M227.33,216.35V187.6h19.41V193H233.8v5.64h11.49V204H233.8v6.92h13.9v5.44Z" transform="translate(-53.88 -168.04)"/><path class="cls-1" d="M157.88,227.32h6.47v28.75h-6.47v-12.2H147v12.2h-6.47V227.32H147v11h10.86Z" transform="translate(-53.88 -168.04)"/><path class="cls-1" d="M199.05,241.68a17.76,17.76,0,0,1-1.1,6.49,13.44,13.44,0,0,1-3,4.68,12.27,12.27,0,0,1-4.54,2.84,16.45,16.45,0,0,1-5.66,1,16,16,0,0,1-5.56-1,12.68,12.68,0,0,1-4.56-2.84,13.15,13.15,0,0,1-3.07-4.68,17.34,17.34,0,0,1-1.12-6.49,16.76,16.76,0,0,1,1.16-6.5,13.83,13.83,0,0,1,3.13-4.7,12.79,12.79,0,0,1,4.56-2.87,15.83,15.83,0,0,1,5.46-1,16.18,16.18,0,0,1,5.55,1,12.57,12.57,0,0,1,4.57,2.87,13.55,13.55,0,0,1,3.07,4.7A17.56,17.56,0,0,1,199.05,241.68Zm-22,0a13.25,13.25,0,0,0,.52,3.81,8.82,8.82,0,0,0,1.5,2.93,6.53,6.53,0,0,0,2.38,1.88,8.1,8.1,0,0,0,6.45,0,6.63,6.63,0,0,0,2.41-1.88,8.8,8.8,0,0,0,1.49-2.93,13.25,13.25,0,0,0,.52-3.81,13.46,13.46,0,0,0-.52-3.84,8.81,8.81,0,0,0-1.49-3A6.63,6.63,0,0,0,188,233a7.44,7.44,0,0,0-3.21-.67,7.28,7.28,0,0,0-3.24.69,6.69,6.69,0,0,0-2.38,1.9,8.82,8.82,0,0,0-1.5,2.95A13.32,13.32,0,0,0,177.1,241.68Z" transform="translate(-53.88 -168.04)"/><path class="cls-1" d="M213.51,227q6.48,0,9.92,2.3c2.29,1.54,3.44,3.92,3.44,7.16a8.09,8.09,0,0,1-1.39,4.91,9.18,9.18,0,0,1-4,3c.58.72,1.19,1.54,1.82,2.47s1.27,1.89,1.89,2.9,1.22,2.06,1.8,3.15,1.12,2.17,1.62,3.22h-7.23c-.53-.94-1.06-1.9-1.61-2.86s-1.09-1.91-1.66-2.82-1.13-1.78-1.69-2.6-1.11-1.55-1.66-2.22h-3.2v10.5h-6.47V227.74a35.85,35.85,0,0,1,4.38-.58C211,227.05,212.32,227,213.51,227Zm.38,5.52c-.47,0-.9,0-1.27,0l-1.06.08v7.8h1.83a11.06,11.06,0,0,0,5.23-.91,3.3,3.3,0,0,0,1.57-3.11,3.16,3.16,0,0,0-1.6-3A9.9,9.9,0,0,0,213.89,232.51Z" transform="translate(-53.88 -168.04)"/><path class="cls-1" d="M260.29,241.68a17.76,17.76,0,0,1-1.1,6.49,13.16,13.16,0,0,1-3,4.68,12.19,12.19,0,0,1-4.54,2.84,16.37,16.37,0,0,1-5.66,1,16,16,0,0,1-5.56-1,12.68,12.68,0,0,1-4.56-2.84,13.28,13.28,0,0,1-3.07-4.68,17.34,17.34,0,0,1-1.12-6.49,17,17,0,0,1,1.16-6.5,14,14,0,0,1,3.13-4.7,12.91,12.91,0,0,1,4.57-2.87,15.74,15.74,0,0,1,5.45-1,16.24,16.24,0,0,1,5.56,1,12.62,12.62,0,0,1,4.56,2.87,13.55,13.55,0,0,1,3.07,4.7A17.35,17.35,0,0,1,260.29,241.68Zm-21.94,0a12.91,12.91,0,0,0,.52,3.81,8.62,8.62,0,0,0,1.49,2.93,6.56,6.56,0,0,0,2.39,1.88A7.37,7.37,0,0,0,246,251a7.48,7.48,0,0,0,3.22-.67,6.59,6.59,0,0,0,2.4-1.88,8.62,8.62,0,0,0,1.49-2.93,12.91,12.91,0,0,0,.52-3.81,13.11,13.11,0,0,0-.52-3.84,8.63,8.63,0,0,0-1.49-3,6.59,6.59,0,0,0-2.4-1.88,7.48,7.48,0,0,0-3.22-.67,7.24,7.24,0,0,0-3.23.69,6.72,6.72,0,0,0-2.39,1.9,8.63,8.63,0,0,0-1.49,2.95A13,13,0,0,0,238.35,241.68Z" transform="translate(-53.88 -168.04)"/><path class="cls-1" d="M285.54,250.51v5.56h-19.2V227.32h6.47v23.19Z" transform="translate(-53.88 -168.04)"/><path class="cls-1" d="M317.29,241.68a17.76,17.76,0,0,1-1.1,6.49,13.44,13.44,0,0,1-3,4.68,12.27,12.27,0,0,1-4.54,2.84,16.45,16.45,0,0,1-5.66,1,16,16,0,0,1-5.56-1,12.72,12.72,0,0,1-4.57-2.84,13.26,13.26,0,0,1-3.06-4.68,17.34,17.34,0,0,1-1.12-6.49,16.76,16.76,0,0,1,1.16-6.5,13.68,13.68,0,0,1,3.13-4.7,12.79,12.79,0,0,1,4.56-2.87,15.83,15.83,0,0,1,5.46-1,16.18,16.18,0,0,1,5.55,1,12.65,12.65,0,0,1,4.57,2.87,13.39,13.39,0,0,1,3.06,4.7A17.35,17.35,0,0,1,317.29,241.68Zm-22,0a13.25,13.25,0,0,0,.52,3.81,8.82,8.82,0,0,0,1.5,2.93,6.53,6.53,0,0,0,2.38,1.88,8.1,8.1,0,0,0,6.45,0,6.63,6.63,0,0,0,2.41-1.88,8.8,8.8,0,0,0,1.49-2.93,13.25,13.25,0,0,0,.52-3.81,13.46,13.46,0,0,0-.52-3.84,8.81,8.81,0,0,0-1.49-3,6.63,6.63,0,0,0-2.41-1.88,7.44,7.44,0,0,0-3.21-.67,7.28,7.28,0,0,0-3.24.69,6.69,6.69,0,0,0-2.38,1.9,8.82,8.82,0,0,0-1.5,2.95A13.32,13.32,0,0,0,295.34,241.68Z" transform="translate(-53.88 -168.04)"/><path class="cls-1" d="M337.24,232.3c-3,0-5.19.84-6.53,2.51a10.63,10.63,0,0,0-2,6.87,13.89,13.89,0,0,0,.49,3.83,8.32,8.32,0,0,0,1.5,3,6.75,6.75,0,0,0,2.48,1.93,8.42,8.42,0,0,0,3.49.68c.72,0,1.33,0,1.84,0a8.12,8.12,0,0,0,1.35-.17v-10h6.47v14.22a24,24,0,0,1-3.73,1,33.21,33.21,0,0,1-6.35.52,16.62,16.62,0,0,1-5.87-1,12.34,12.34,0,0,1-4.5-2.9A13.07,13.07,0,0,1,323,248a18.34,18.34,0,0,1-1-6.34,16.91,16.91,0,0,1,1.12-6.39,13.86,13.86,0,0,1,3.06-4.71,12.82,12.82,0,0,1,4.59-2.92,15.61,15.61,0,0,1,5.62-1,22.71,22.71,0,0,1,3.67.27,24.43,24.43,0,0,1,2.82.62,13.34,13.34,0,0,1,1.95.73c.51.25.88.44,1.1.58L344,234a17,17,0,0,0-3.05-1.22A12.78,12.78,0,0,0,337.24,232.3Z" transform="translate(-53.88 -168.04)"/><path class="cls-1" d="M363.62,239.11c1.17-2,2.27-3.91,3.33-5.87s2-3.93,2.9-5.92H377q-2.37,4.65-4.9,9t-5.35,8.76v11h-6.47V245.16q-2.82-4.4-5.37-8.79T350,227.32h7.5q1.33,3,2.86,5.92T363.62,239.11Z" transform="translate(-53.88 -168.04)"/><path class="cls-2" d="M89.22,206.49A1.46,1.46,0,0,1,87.75,205V201a1.47,1.47,0,1,1,2.94,0V205A1.46,1.46,0,0,1,89.22,206.49Z" transform="translate(-53.88 -168.04)"/><path class="cls-2" d="M89.22,244.17a1.47,1.47,0,0,1-1.47-1.47v-4.07a1.47,1.47,0,1,1,2.94,0v4.07A1.47,1.47,0,0,1,89.22,244.17Z" transform="translate(-53.88 -168.04)"/><path class="cls-2" d="M101.1,211.42a1.48,1.48,0,0,1-1-2.51l2.88-2.88a1.46,1.46,0,0,1,2.08,0,1.48,1.48,0,0,1,0,2.08L102.14,211A1.46,1.46,0,0,1,101.1,211.42Z" transform="translate(-53.88 -168.04)"/><path class="cls-2" d="M74.46,238.05a1.47,1.47,0,0,1-1-2.5l2.88-2.88a1.47,1.47,0,1,1,2.08,2.07l-2.88,2.88A1.45,1.45,0,0,1,74.46,238.05Z" transform="translate(-53.88 -168.04)"/><path class="cls-2" d="M77.34,211.42a1.48,1.48,0,0,1-1-.44l-2.88-2.87a1.48,1.48,0,0,1,0-2.08,1.46,1.46,0,0,1,2.08,0l2.88,2.88a1.48,1.48,0,0,1-1,2.51Z" transform="translate(-53.88 -168.04)"/><path class="cls-2" d="M104,238.05a1.45,1.45,0,0,1-1-.43l-2.88-2.88a1.47,1.47,0,1,1,2.08-2.07l2.88,2.88a1.47,1.47,0,0,1-1,2.5Z" transform="translate(-53.88 -168.04)"/><path class="cls-2" d="M72.42,223.3H68.35a1.47,1.47,0,0,1,0-2.94h4.07a1.47,1.47,0,0,1,0,2.94Z" transform="translate(-53.88 -168.04)"/><path class="cls-2" d="M110.09,223.3H106a1.47,1.47,0,0,1,0-2.94h4.07a1.47,1.47,0,0,1,0,2.94Z" transform="translate(-53.88 -168.04)"/><path class="cls-2" d="M99.22,211.93a1.46,1.46,0,0,0-2.07,0l-6.1,6.24a4,4,0,0,0-5.59,3.74,4,4,0,0,0,.36,1.61l-1.2,1.23a1.46,1.46,0,0,0,0,2.07,1.42,1.42,0,0,0,1,.42,1.44,1.44,0,0,0,1-.44l1.21-1.23a4,4,0,0,0,5.56-3.75,3.85,3.85,0,0,0-.35-1.59L99.25,214A1.47,1.47,0,0,0,99.22,211.93Zm-10.82,10A1.08,1.08,0,1,1,89.49,223,1.07,1.07,0,0,1,88.4,221.9Z" transform="translate(-53.88 -168.04)"/><path class="cls-2" d="M82.53,182.79A2.45,2.45,0,0,0,85,180.61h0v-4a1,1,0,0,1,1-1,.94.94,0,0,1,.81.47v4.27a2.45,2.45,0,0,0,4.9,0v-4.28a1,1,0,0,1,.81-.46,1,1,0,0,1,1,1v4h0a2.44,2.44,0,0,0,2.42,2.18,2.47,2.47,0,0,0,2.45-2.45v-7.6s0,0,0-.06V171A2.94,2.94,0,0,0,95.42,168H83A2.94,2.94,0,0,0,80.08,171v9.36A2.46,2.46,0,0,0,82.53,182.79Z" transform="translate(-53.88 -168.04)"/><path class="cls-2" d="M89.22,186.49a35.34,35.34,0,1,0,35.34,35.34A35.34,35.34,0,0,0,89.22,186.49ZM58.79,223a1.21,1.21,0,0,1-1.21-1.2A31.66,31.66,0,0,1,89.21,190.2a1.21,1.21,0,1,1,0,2.41A29.25,29.25,0,0,0,60,221.83,1.21,1.21,0,0,1,58.79,223Zm5.2-1.2a25.24,25.24,0,1,1,25.23,25.23A25.23,25.23,0,0,1,64,221.83Zm25.22,31.62a1.21,1.21,0,1,1,0-2.41,29.24,29.24,0,0,0,29.21-29.21,1.21,1.21,0,1,1,2.42,0A31.66,31.66,0,0,1,89.21,253.45Z" transform="translate(-53.88 -168.04)"/></svg>